<svg width="400" height="400" viewBox="0 0 400 400" fill="none" xmlns="http://www.w3.org/2000/svg">
<g clip-path="url(#clip0_266_267)">
<path d="M288.808 433.568L65.1312 433.872L84.8768 373.156H65.3092L84.8768 320.88H269.143L288.808 373.429H269.143L288.808 433.568Z" fill="#1DB9D2"/>
<path d="M296.996 321.144L60.4202 321.4L99.1024 242.713H72.8503L111.775 166.899L296.996 207.157V321.144Z" fill="#FFDD00"/>
<path d="M296.995 321.147V207.16C296.995 207.16 365.085 222.355 379.732 259.949C380.784 262.661 381.237 265.581 381.237 268.486C383.989 319.59 297.011 321.147 297.011 321.147H296.995Z" fill="#CE3F8F"/>
<path d="M238.946 194.544C300.918 109.326 331.54 67.1751 307.02 46.5246C290.932 32.934 267.27 44.4226 231.922 70.5606C230.611 98.5279 225.836 136.941 216.87 189.746L238.946 194.544Z" fill="#008599"/>
<path d="M213.134 18.8067C179.648 10.7038 160.29 63.8945 111.784 166.906L219.738 190.365C228.704 137.559 233.624 98.9217 233.446 68.9969C234.757 38.9278 229.497 22.7218 213.134 18.8067Z" fill="#1DB9D2"/>
<path d="M225.047 271.252C238.75 271.252 249.858 260.24 249.858 246.655C249.858 233.07 238.75 222.057 225.047 222.057C211.344 222.057 200.235 233.07 200.235 246.655C200.235 260.24 211.344 271.252 225.047 271.252Z" fill="white"/>
<path d="M225.042 258.554C231.675 258.554 237.052 253.224 237.052 246.648C237.052 240.073 231.675 234.742 225.042 234.742C218.41 234.742 213.033 240.073 213.033 246.648C213.033 253.224 218.41 258.554 225.042 258.554Z" fill="black"/>
<path d="M297.003 316.764V321.144H282.939L252.495 308.083C250.148 307.153 247.056 303.751 248.335 301.296C249.096 299.788 252.139 297.975 257.059 299.884L297.003 316.748V316.764Z" fill="black"/>
</g>
<defs>
<clipPath id="clip0_266_267">
<rect width="400" height="400" fill="white"/>
</clipPath>
</defs>
</svg>
